# xmcd CD database file
#
# Track frame offsets:
#	150
#	14302
#	31857
#	48835
#	68447
#	91155
#	104632
#	125277
#	139947
#	153307
#	181875
#	194912
#
# Disc length: 2793 seconds
#
# Revision: 0
# Processed by: cddbd v1.5.1PL2 Copyright (c) Steve Scherf et al.
# Submitted via: CDex 1.51
#
DISCID=9a0ae70c
DTITLE=Cafe Jacques - International
DYEAR=1900
DGENRE=Rock
TTITLE0=Boulevard Of Broken Dreams
TTITLE1=How Easy
TTITLE2=Waiting
TTITLE3=Station Of Dreams
TTITLE4=Chanting And Raving
TTITLE5=Can't Stand Still
TTITLE6=Man In The Meadow
TTITLE7=Knife Edge
TTITLE8=This Way Up
TTITLE9=The Medley
TTITLE10=International
TTITLE11=Ease Up
EXTD=
EXTT0=
EXTT1=
EXTT2=
EXTT3=
EXTT4=
EXTT5=
EXTT6=
EXTT7=
EXTT8=
EXTT9=
EXTT10=
EXTT11=
PLAYORDER=
